<?xml version="1.0" encoding="UTF-8"?>
<svg width="557px" height="191px" viewBox="0 0 557 191" version="1.1" xmlns="http://www.w3.org/2000/svg" xmlns:xlink="http://www.w3.org/1999/xlink">
    <!-- Generator: Sketch 52.6 (67491) - http://www.bohemiancoding.com/sketch -->
    <title>GetStarted</title>
    <desc>Created with Sketch.</desc>
    <g id="GetStarted" stroke="none" stroke-width="1" fill="none" fill-rule="evenodd">
        <rect fill="#FFFFFF" x="0" y="0" width="557" height="191"></rect>
        <polygon id="Rectangle-24" fill-opacity="0.2" fill="#157EFB" points="6 6 126 6 126 50 6 50"></polygon>
        <polygon id="Rectangle-24-Copy-3" fill-opacity="0.2" fill="#157EFB" points="127 6 207 6 207 50 127 50"></polygon>
        <polygon id="Rectangle-24-Copy-4" fill-opacity="0.2" fill="#157EFB" points="208 6 288 6 288 50 208 50"></polygon>
        <polygon id="Rectangle-24-Copy-5" fill-opacity="0.2" fill="#157EFB" points="289 6 369 6 369 50 289 50"></polygon>
        <polygon id="Rectangle-24-Copy-6" fill-opacity="0.2" fill="#157EFB" points="370 6 460 6 460 50 370 50"></polygon>
        <polygon id="Rectangle-24-Copy-7" fill-opacity="0.2" fill="#157EFB" points="461 6 551 6 551 50 461 50"></polygon>
        <text id="Refunds" font-family="Helvetica" font-size="13" font-weight="normal" fill="#26282E">
            <tspan x="305.290039" y="33">Refunds</tspan>
        </text>
        <text id="Partial-refunds" font-family="Helvetica" font-size="13" font-weight="normal" fill="#26282E">
            <tspan x="396.575928" y="25">Partial </tspan>
            <tspan x="393.31958" y="41">refunds</tspan>
        </text>
        <text id="Chargebacks" font-family="Helvetica" font-size="13" font-weight="normal" fill="#26282E">
            <tspan x="468.201416" y="33">Chargebacks</tspan>
        </text>
        <rect id="Rectangle-24" fill="#F1F6FC" x="289" y="51" width="80" height="44"></rect>
        <rect id="Rectangle-24-Copy-8" fill="#F1F6FC" x="289" y="96" width="80" height="44"></rect>
        <rect id="Rectangle-24-Copy-13" fill="#F1F6FC" x="289" y="141" width="80" height="44"></rect>
        <rect id="Rectangle-24-Copy" fill="#F1F6FC" x="461" y="51" width="90" height="44"></rect>
        <rect id="Rectangle-24-Copy-9" fill="#F1F6FC" x="461" y="96" width="90" height="44"></rect>
        <rect id="Rectangle-24-Copy-14" fill="#F1F6FC" x="461" y="141" width="90" height="44"></rect>
        <rect id="Combined-Shape" fill-opacity="0.2" fill="#157EFB" x="6" y="51" width="120" height="44"></rect>
        <rect id="Combined-Shape-Copy" fill-opacity="0.2" fill="#157EFB" x="6" y="96" width="120" height="44"></rect>
        <rect id="Combined-Shape-Copy-2" fill-opacity="0.2" fill="#157EFB" x="6" y="141" width="120" height="44"></rect>
        <text id="Payment-Methods" font-family="Helvetica" font-size="13" font-weight="normal" fill="#26282E">
            <tspan x="14.112793" y="33">Payment Methods</tspan>
        </text>
        <text id="Online" font-family="Helvetica" font-size="13" font-weight="normal" fill="#26282E">
            <tspan x="148.210938" y="33">Online</tspan>
        </text>
        <text id="In-store" font-family="Helvetica" font-size="13" font-weight="normal" fill="#26282E">
            <tspan x="226.464111" y="33">In-store</tspan>
        </text>
        <text id="Alipay" font-family="Helvetica" font-size="13" font-weight="normal" fill="#26282E">
            <tspan x="49.2963867" y="78">Alipay</tspan>
        </text>
        <text id="WeChat-Pay" font-family="Helvetica" font-size="13" font-weight="normal" fill="#26282E">
            <tspan x="30.0136719" y="123">WeChat Pay</tspan>
        </text>
        <text id="China-Union-Pay-(CUP" font-family="Helvetica" font-size="13" font-weight="normal" fill="#26282E">
            <tspan x="17.7214355" y="160">China Union Pay </tspan>
            <tspan x="48.4472656" y="176">(CUP)</tspan>
        </text>
        <rect id="Rectangle-24" fill="#F1F6FC" x="127" y="51" width="80" height="44"></rect>
        <rect id="Rectangle-24-Copy-10" fill="#F1F6FC" x="127" y="96" width="80" height="44"></rect>
        <rect id="Rectangle-24-Copy-15" fill="#F1F6FC" x="127" y="141" width="80" height="44"></rect>
        <rect id="Rectangle-24" fill="#F1F6FC" x="208" y="51" width="80" height="44"></rect>
        <rect id="Rectangle-24-Copy-11" fill="#F1F6FC" x="208" y="96" width="80" height="44"></rect>
        <rect id="Rectangle-24-Copy-16" fill="#F1F6FC" x="208" y="141" width="80" height="44"></rect>
        <rect id="Rectangle-24-Copy-2" fill="#F1F6FC" x="370" y="51" width="90" height="44"></rect>
        <rect id="Rectangle-24-Copy-12" fill="#F1F6FC" x="370" y="96" width="90" height="44"></rect>
        <rect id="Rectangle-24-Copy-17" fill="#F1F6FC" x="370" y="141" width="90" height="44"></rect>
        <path d="M510.748271,115.465379 C511.083883,115.130208 511.083883,114.586866 510.748271,114.251715 C510.413101,113.916102 509.869761,113.916102 509.534611,114.251715 L506.49996,117.286296 L503.465369,114.251695 C503.130199,113.916102 502.586879,113.916102 502.251709,114.251695 C501.916097,114.586886 501.916097,115.130208 502.251709,115.465379 L505.2863,118.5 L502.251709,121.534621 C501.916097,121.869792 501.916097,122.413134 502.251709,122.748285 C502.586879,123.083898 503.130199,123.083898 503.465369,122.748285 L506.49998,119.713684 L509.534611,122.748305 C509.869801,123.083898 510.413121,123.083898 510.748291,122.748305 C511.083903,122.413114 511.083903,121.869792 510.748291,121.534621 L507.713659,118.5 L510.748271,115.465379 Z" id="Shape" fill="#8B929B" fill-rule="nonzero"></path>
        <path d="M510.748271,70.4653785 C511.083883,70.1302078 511.083883,69.5868656 510.748271,69.251715 C510.413101,68.9161017 509.869761,68.9161017 509.534611,69.251715 L506.49996,72.2862962 L503.465369,69.2516949 C503.130199,68.9161017 502.586879,68.9161017 502.251709,69.2516949 C501.916097,69.5868857 501.916097,70.1302078 502.251709,70.4653785 L505.2863,73.5 L502.251709,76.5346215 C501.916097,76.8697922 501.916097,77.4131344 502.251709,77.748285 C502.586879,78.0838983 503.130199,78.0838983 503.465369,77.748285 L506.49998,74.7136836 L509.534611,77.7483051 C509.869801,78.0838983 510.413121,78.0838983 510.748291,77.7483051 C511.083903,77.4131143 511.083903,76.8697922 510.748291,76.5346215 L507.713659,73.5 L510.748271,70.4653785 Z" id="Shape" fill="#8B929B" fill-rule="nonzero"></path>
        <g id="对-(1)" transform="translate(160.000000, 68.000000)" fill="#00CC66" fill-rule="nonzero">
            <path d="M12.7311937,2.40493151 L6.25855186,8.86755382 C5.90786693,9.22825832 5.33675147,9.23827789 4.97604697,8.88759295 L4.95600783,8.86755382 L1.23874755,5.15029354 C0.878043053,4.78958904 0.878043053,4.20845401 1.23874755,3.84774951 C1.59945205,3.48704501 2.18058708,3.48704501 2.54129159,3.84774951 L5.62731898,6.93377691 L11.4486888,1.13244618 C11.8093933,0.771741683 12.3905284,0.771741683 12.7512329,1.12242661 C13.1119374,1.48313112 13.1219569,2.06426614 12.7612524,2.42497065 L12.7512329,2.43499022 L12.7311937,2.40493151 Z" id="Shape"></path>
        </g>
        <g id="对-(1)-copy-4" transform="translate(160.000000, 113.000000)" fill="#00CC66" fill-rule="nonzero">
            <path d="M12.7311937,2.40493151 L6.25855186,8.86755382 C5.90786693,9.22825832 5.33675147,9.23827789 4.97604697,8.88759295 L4.95600783,8.86755382 L1.23874755,5.15029354 C0.878043053,4.78958904 0.878043053,4.20845401 1.23874755,3.84774951 C1.59945205,3.48704501 2.18058708,3.48704501 2.54129159,3.84774951 L5.62731898,6.93377691 L11.4486888,1.13244618 C11.8093933,0.771741683 12.3905284,0.771741683 12.7512329,1.12242661 C13.1119374,1.48313112 13.1219569,2.06426614 12.7612524,2.42497065 L12.7512329,2.43499022 L12.7311937,2.40493151 Z" id="Shape"></path>
        </g>
        <g id="对-(1)-copy-8" transform="translate(160.000000, 158.000000)" fill="#00CC66" fill-rule="nonzero">
            <path d="M12.7311937,2.40493151 L6.25855186,8.86755382 C5.90786693,9.22825832 5.33675147,9.23827789 4.97604697,8.88759295 L4.95600783,8.86755382 L1.23874755,5.15029354 C0.878043053,4.78958904 0.878043053,4.20845401 1.23874755,3.84774951 C1.59945205,3.48704501 2.18058708,3.48704501 2.54129159,3.84774951 L5.62731898,6.93377691 L11.4486888,1.13244618 C11.8093933,0.771741683 12.3905284,0.771741683 12.7512329,1.12242661 C13.1119374,1.48313112 13.1219569,2.06426614 12.7612524,2.42497065 L12.7512329,2.43499022 L12.7311937,2.40493151 Z" id="Shape"></path>
        </g>
        <g id="对-(1)-copy" transform="translate(241.000000, 68.000000)" fill="#00CC66" fill-rule="nonzero">
            <path d="M12.7311937,2.40493151 L6.25855186,8.86755382 C5.90786693,9.22825832 5.33675147,9.23827789 4.97604697,8.88759295 L4.95600783,8.86755382 L1.23874755,5.15029354 C0.878043053,4.78958904 0.878043053,4.20845401 1.23874755,3.84774951 C1.59945205,3.48704501 2.18058708,3.48704501 2.54129159,3.84774951 L5.62731898,6.93377691 L11.4486888,1.13244618 C11.8093933,0.771741683 12.3905284,0.771741683 12.7512329,1.12242661 C13.1119374,1.48313112 13.1219569,2.06426614 12.7612524,2.42497065 L12.7512329,2.43499022 L12.7311937,2.40493151 Z" id="Shape"></path>
        </g>
        <g id="对-(1)-copy-5" transform="translate(241.000000, 113.000000)" fill="#00CC66" fill-rule="nonzero">
            <path d="M12.7311937,2.40493151 L6.25855186,8.86755382 C5.90786693,9.22825832 5.33675147,9.23827789 4.97604697,8.88759295 L4.95600783,8.86755382 L1.23874755,5.15029354 C0.878043053,4.78958904 0.878043053,4.20845401 1.23874755,3.84774951 C1.59945205,3.48704501 2.18058708,3.48704501 2.54129159,3.84774951 L5.62731898,6.93377691 L11.4486888,1.13244618 C11.8093933,0.771741683 12.3905284,0.771741683 12.7512329,1.12242661 C13.1119374,1.48313112 13.1219569,2.06426614 12.7612524,2.42497065 L12.7512329,2.43499022 L12.7311937,2.40493151 Z" id="Shape"></path>
        </g>
        <g id="对-(1)-copy-9" transform="translate(241.000000, 158.000000)" fill="#00CC66" fill-rule="nonzero">
            <path d="M12.7311937,2.40493151 L6.25855186,8.86755382 C5.90786693,9.22825832 5.33675147,9.23827789 4.97604697,8.88759295 L4.95600783,8.86755382 L1.23874755,5.15029354 C0.878043053,4.78958904 0.878043053,4.20845401 1.23874755,3.84774951 C1.59945205,3.48704501 2.18058708,3.48704501 2.54129159,3.84774951 L5.62731898,6.93377691 L11.4486888,1.13244618 C11.8093933,0.771741683 12.3905284,0.771741683 12.7512329,1.12242661 C13.1119374,1.48313112 13.1219569,2.06426614 12.7612524,2.42497065 L12.7512329,2.43499022 L12.7311937,2.40493151 Z" id="Shape"></path>
        </g>
        <g id="对-(1)-copy-2" transform="translate(322.000000, 68.000000)" fill="#00CC66" fill-rule="nonzero">
            <path d="M12.7311937,2.40493151 L6.25855186,8.86755382 C5.90786693,9.22825832 5.33675147,9.23827789 4.97604697,8.88759295 L4.95600783,8.86755382 L1.23874755,5.15029354 C0.878043053,4.78958904 0.878043053,4.20845401 1.23874755,3.84774951 C1.59945205,3.48704501 2.18058708,3.48704501 2.54129159,3.84774951 L5.62731898,6.93377691 L11.4486888,1.13244618 C11.8093933,0.771741683 12.3905284,0.771741683 12.7512329,1.12242661 C13.1119374,1.48313112 13.1219569,2.06426614 12.7612524,2.42497065 L12.7512329,2.43499022 L12.7311937,2.40493151 Z" id="Shape"></path>
        </g>
        <g id="对-(1)-copy-3" transform="translate(408.000000, 68.000000)" fill="#00CC66" fill-rule="nonzero">
            <path d="M12.7311937,2.40493151 L6.25855186,8.86755382 C5.90786693,9.22825832 5.33675147,9.23827789 4.97604697,8.88759295 L4.95600783,8.86755382 L1.23874755,5.15029354 C0.878043053,4.78958904 0.878043053,4.20845401 1.23874755,3.84774951 C1.59945205,3.48704501 2.18058708,3.48704501 2.54129159,3.84774951 L5.62731898,6.93377691 L11.4486888,1.13244618 C11.8093933,0.771741683 12.3905284,0.771741683 12.7512329,1.12242661 C13.1119374,1.48313112 13.1219569,2.06426614 12.7612524,2.42497065 L12.7512329,2.43499022 L12.7311937,2.40493151 Z" id="Shape"></path>
        </g>
        <g id="对-(1)-copy-6" transform="translate(322.000000, 113.000000)" fill="#00CC66" fill-rule="nonzero">
            <path d="M12.7311937,2.40493151 L6.25855186,8.86755382 C5.90786693,9.22825832 5.33675147,9.23827789 4.97604697,8.88759295 L4.95600783,8.86755382 L1.23874755,5.15029354 C0.878043053,4.78958904 0.878043053,4.20845401 1.23874755,3.84774951 C1.59945205,3.48704501 2.18058708,3.48704501 2.54129159,3.84774951 L5.62731898,6.93377691 L11.4486888,1.13244618 C11.8093933,0.771741683 12.3905284,0.771741683 12.7512329,1.12242661 C13.1119374,1.48313112 13.1219569,2.06426614 12.7612524,2.42497065 L12.7512329,2.43499022 L12.7311937,2.40493151 Z" id="Shape"></path>
        </g>
        <g id="对-(1)-copy-7" transform="translate(408.000000, 113.000000)" fill="#00CC66" fill-rule="nonzero">
            <path d="M12.7311937,2.40493151 L6.25855186,8.86755382 C5.90786693,9.22825832 5.33675147,9.23827789 4.97604697,8.88759295 L4.95600783,8.86755382 L1.23874755,5.15029354 C0.878043053,4.78958904 0.878043053,4.20845401 1.23874755,3.84774951 C1.59945205,3.48704501 2.18058708,3.48704501 2.54129159,3.84774951 L5.62731898,6.93377691 L11.4486888,1.13244618 C11.8093933,0.771741683 12.3905284,0.771741683 12.7512329,1.12242661 C13.1119374,1.48313112 13.1219569,2.06426614 12.7612524,2.42497065 L12.7512329,2.43499022 L12.7311937,2.40493151 Z" id="Shape"></path>
        </g>
        <g id="对-(1)-copy-10" transform="translate(322.000000, 158.000000)" fill="#00CC66" fill-rule="nonzero">
            <path d="M12.7311937,2.40493151 L6.25855186,8.86755382 C5.90786693,9.22825832 5.33675147,9.23827789 4.97604697,8.88759295 L4.95600783,8.86755382 L1.23874755,5.15029354 C0.878043053,4.78958904 0.878043053,4.20845401 1.23874755,3.84774951 C1.59945205,3.48704501 2.18058708,3.48704501 2.54129159,3.84774951 L5.62731898,6.93377691 L11.4486888,1.13244618 C11.8093933,0.771741683 12.3905284,0.771741683 12.7512329,1.12242661 C13.1119374,1.48313112 13.1219569,2.06426614 12.7612524,2.42497065 L12.7512329,2.43499022 L12.7311937,2.40493151 Z" id="Shape"></path>
        </g>
        <g id="对-(1)-copy-11" transform="translate(408.000000, 158.000000)" fill="#00CC66" fill-rule="nonzero">
            <path d="M12.7311937,2.40493151 L6.25855186,8.86755382 C5.90786693,9.22825832 5.33675147,9.23827789 4.97604697,8.88759295 L4.95600783,8.86755382 L1.23874755,5.15029354 C0.878043053,4.78958904 0.878043053,4.20845401 1.23874755,3.84774951 C1.59945205,3.48704501 2.18058708,3.48704501 2.54129159,3.84774951 L5.62731898,6.93377691 L11.4486888,1.13244618 C11.8093933,0.771741683 12.3905284,0.771741683 12.7512329,1.12242661 C13.1119374,1.48313112 13.1219569,2.06426614 12.7612524,2.42497065 L12.7512329,2.43499022 L12.7311937,2.40493151 Z" id="Shape"></path>
        </g>
        <g id="对-(1)-copy-12" transform="translate(499.000000, 158.000000)" fill="#00CC66" fill-rule="nonzero">
            <path d="M12.7311937,2.40493151 L6.25855186,8.86755382 C5.90786693,9.22825832 5.33675147,9.23827789 4.97604697,8.88759295 L4.95600783,8.86755382 L1.23874755,5.15029354 C0.878043053,4.78958904 0.878043053,4.20845401 1.23874755,3.84774951 C1.59945205,3.48704501 2.18058708,3.48704501 2.54129159,3.84774951 L5.62731898,6.93377691 L11.4486888,1.13244618 C11.8093933,0.771741683 12.3905284,0.771741683 12.7512329,1.12242661 C13.1119374,1.48313112 13.1219569,2.06426614 12.7612524,2.42497065 L12.7512329,2.43499022 L12.7311937,2.40493151 Z" id="Shape"></path>
        </g>
    </g>
</svg>