<?xml version="1.0" encoding="UTF-8"?>
<svg width="12px" height="16px" viewBox="0 0 12 16" version="1.1" xmlns="http://www.w3.org/2000/svg" xmlns:xlink="http://www.w3.org/1999/xlink">
    <!-- Generator: Sketch 52.6 (67491) - http://www.bohemiancoding.com/sketch -->
    <title>link</title>
    <desc>Created with Sketch.</desc>
    <g id="Page-1" stroke="none" stroke-width="1" fill="none" fill-rule="evenodd">
        <g id="GetStarted" transform="translate(-385.000000, -893.000000)" fill="#000000" fill-rule="nonzero">
            <g id="link" transform="translate(385.000000, 893.000000)">
                <path d="M11.8161039,3.77667133 L9.63428571,7.57495944 C9.28955844,8.17396364 8.52779221,8.37947972 7.93122078,8.03298462 L7.392,7.7196979 L8.01537662,6.6350993 C8.31335065,6.80740699 8.69485714,6.70527552 8.86628571,6.40577343 L10.4247273,3.69271049 C10.5967792,3.39258182 10.4945455,3.00974545 10.1971948,2.83681119 L8.03719481,1.58366434 C7.7385974,1.41073007 7.35771429,1.51348811 7.18628571,1.81299021 L5.62784416,4.52605315 C5.45516883,4.82618182 5.5574026,5.20901818 5.85537662,5.38195245 L5.232,6.46655105 L4.69277922,6.15326434 C4.09620779,5.8073958 3.89174026,5.0410965 4.23646753,4.44209231 L6.41828571,0.643804196 C6.76301299,0.0441734266 7.52477922,-0.160716084 8.12135065,0.185152448 L11.3597922,2.06487273 C11.9563636,2.41074126 12.1608312,3.17704056 11.8161039,3.77667133 Z M4.44155844,10.3494266 C4.14296104,10.1764923 4.04072727,9.79302937 4.2134026,9.49352727 L6.70690909,5.15262657 C6.87896104,4.8524979 7.26046753,4.74973986 7.55844156,4.9233007 C7.85641558,5.09686154 7.95927273,5.4796979 7.78597403,5.7792 L5.29246753,10.1201007 C5.12103896,10.4196028 4.74015584,10.5217343 4.44155844,10.3494266 Z M3.98524675,8.63825455 C3.68664935,8.46532028 3.30576623,8.56807832 3.13371429,8.86695385 L1.57527273,11.5800168 C1.40322078,11.8801455 1.50545455,12.2629818 1.80342857,12.4359161 L3.96342857,13.6890629 C4.2614026,13.8619972 4.64290909,13.7592392 4.81433766,13.4597371 L6.37277922,10.7466741 C6.54483117,10.447172 6.4425974,10.0637091 6.14524675,9.89077483 L6.76862338,8.80617622 L7.30784416,9.11946294 C7.90441558,9.46533147 8.10888312,10.2310042 7.76415584,10.830635 L5.58233766,14.6289231 C5.23761039,15.2285538 4.47584416,15.4334434 3.87927273,15.0875748 L0.640207792,13.2078545 C0.0436363636,12.8613594 -0.160831169,12.0956867 0.183896104,11.4960559 L2.36571429,7.69776783 C2.71044156,7.09813706 3.47283117,6.89262098 4.0694026,7.23911608 L4.60862338,7.5524028 L3.98524675,8.63825455 Z" id="Shape"></path>
            </g>
        </g>
    </g>
</svg>